:SAMPLES-PER-SECOND 30
:FRAME-RANGE 1-2775
:FULLY-SPECIFIED
:DEGREES
2082
root  21.3587 38.7277 -46.9343 -178.015 -46.8098 175.407
RightUpLeg  -24.3584 7.97545 -14.9019
RightLeg  31.0281 -7.86514 -5.30408
RightFoot  -8.92696 -0.202618 6.72532
RightToes  1.218e-010 1.26228e-014 -6.01869e-014
Spine  -4.86731 -0.245954 -0.212079
Spine1  8.227 -0.131359 -1.82447
HEad  4.43958 52.2742 -8.30633
LeftShoulder1  0.654583 0.978447 -22.0339
LeftArm  5.38039 2.5104 -58.3951
LeftForeArm  32.2903 -7.74829 -11.9628
LeftHand  -0.0435256 4.87348 4.91346
RightShoulder  0.729355 -1.10777 26.9653
RightArm  -31.7656 -14.8887 39.0867
RightForeArm  70.7858 -4.66084 -0.118254
RightHand  0.329165 -8.14056 -14.8057
LeftUpLeg  -3.55519 -6.14012 -11.9631
LeftLeg  22.9588 4.90144 3.03911
LeftFoot  -16.3088 0.366676 6.18539
LeftToes  5.08156e-010 -6.90346e-011 -6.33378e-011
2083
root  20.7409 38.735 -47.9675 -177.089 -50.0829 175.176
RightUpLeg  -23.5017 10.3192 -17.3903
RightLeg  19.6419 -6.92875 -2.93904
RightFoot  -8.47446 -0.237351 7.17069
RightToes  1.218e-010 1.26228e-014 -6.01869e-014
Spine  -5.74679 -0.471832 0.158857
Spine1  8.50974 -0.175097 -2.06578
HEad  2.98741 53.4921 -8.70799
LeftShoulder1  0.640043 1.03205 -22.0589
LeftArm  6.98656 1.67533 -58.9232
LeftForeArm  31.0475 -8.9106 -11.6569
LeftHand  -0.0472392 4.79726 5.11889
RightShoulder  0.719563 -1.13543 26.9306
RightArm  -32.8121 -17.5855 39.3199
RightForeArm  71.8729 -4.51893 -0.695973
RightHand  0.321614 -8.32547 -13.6714
LeftUpLeg  -1.80696 -6.70429 -11.1907
LeftLeg  22.2234 2.36604 1.9072
LeftFoot  -17.4725 0.447268 6.38188
LeftToes  5.08156e-010 -6.90346e-011 -6.33378e-011
2084
root  20.127 38.674 -49.0084 -175.712 -53.0759 174.389
RightUpLeg  -22.7219 7.71817 -18.165
RightLeg  10.915 0.284621 -1.4789
RightFoot  -8.50615 -0.274627 8.73966
RightToes  1.218e-010 1.26228e-014 -6.01869e-014
Spine  -6.31163 -0.573859 0.301914
Spine1  8.41326 -0.0820304 -2.47597
HEad  1.69962 55.3686 -9.09017
LeftShoulder1  0.586639 1.23152 -22.1999
LeftArm  8.41899 1.12427 -59.1846
LeftForeArm  30.1604 -9.58644 -11.5061
LeftHand  -0.0509811 4.92027 5.11368
RightShoulder  0.69768 -1.19765 26.8569
RightArm  -33.0334 -19.9799 39.8192
RightForeArm  72.4417 -4.50011 -0.673604
RightHand  0.301862 -8.38623 -12.7021
LeftUpLeg  -0.249373 -6.92398 -10.5081
LeftLeg  21.6947 -0.33014 0.791856
LeftFoot  -18.7577 0.533224 6.47888
LeftToes  5.08156e-010 -6.90346e-011 -6.33378e-011
2085
root  19.5304 38.5979 -50.0867 -174.626 -56.0525 173.792
RightUpLeg  -21.7932 -1.52524 -15.1128
RightLeg  5.21206 13.0746 -2.87398
RightFoot  -8.76904 -0.346634 12.7243
RightToes  1.218e-010 1.26228e-014 -6.01869e-014
Spine  -6.80758 -0.574868 0.485475
Spine1  8.44173 0.0102011 -2.7288
HEad  0.87267 57.5718 -9.35893
LeftShoulder1  0.574615 1.28673 -22.3886
LeftArm  8.48134 0.745575 -59.1062
LeftForeArm  30.3878 -9.31056 -11.6417
LeftHand  -0.0518798 4.88517 5.03309
RightShoulder  0.69333 -1.21994 27.0055
RightArm  -32.7307 -21.749 40.3119
RightForeArm  72.3301 -4.56851 -0.300669
RightHand  0.28462 -8.40486 -12.0087
LeftUpLeg  1.33497 -7.75261 -9.53181
LeftLeg  21.3899 -2.51139 -0.0774555
LeftFoot  -20.0025 0.586892 6.15472
LeftToes  5.08156e-010 -6.90346e-011 -6.33378e-011
